<mxfile host="Electron" modified="2024-06-11T09:42:11.461Z" agent="Mozilla/5.0 (Windows NT 10.0; Win64; x64) AppleWebKit/537.36 (KHTML, like Gecko) draw.io/24.5.1 Chrome/124.0.6367.207 Electron/30.0.6 Safari/537.36" etag="SRkizRa2SA2BjD8QaQ0f" version="24.5.1" type="device">
  <diagram name="第 1 页" id="b1JaG8CMX7IKJlPEmH8c">
    <mxGraphModel dx="1915" dy="-623" grid="1" gridSize="10" guides="1" tooltips="1" connect="1" arrows="1" fold="1" page="1" pageScale="1" pageWidth="827" pageHeight="1169" math="0" shadow="0">
      <root>
        <mxCell id="0" />
        <mxCell id="1" parent="0" />
        <mxCell id="bpvDZhiT_yB0_DmH0w2s-3" value="&lt;font style=&quot;font-size: 48px;&quot;&gt;MOP商品详情页场景&lt;/font&gt;" style="text;strokeColor=none;fillColor=none;align=left;verticalAlign=middle;spacingLeft=4;spacingRight=4;overflow=hidden;points=[[0,0.5],[1,0.5]];portConstraint=eastwest;rotatable=0;whiteSpace=wrap;html=1;" parent="1" vertex="1">
          <mxGeometry x="-767.5" y="1277" width="457.5" height="110" as="geometry" />
        </mxCell>
        <mxCell id="bpvDZhiT_yB0_DmH0w2s-4" value="&lt;font style=&quot;font-size: 36px;&quot;&gt;业务视角&lt;/font&gt;" style="text;html=1;align=center;verticalAlign=middle;resizable=0;points=[];autosize=1;strokeColor=none;fillColor=none;" parent="1" vertex="1">
          <mxGeometry x="720" y="1520" width="170" height="60" as="geometry" />
        </mxCell>
        <mxCell id="bpvDZhiT_yB0_DmH0w2s-8" style="edgeStyle=orthogonalEdgeStyle;rounded=0;orthogonalLoop=1;jettySize=auto;html=1;exitX=0.5;exitY=1;exitDx=0;exitDy=0;" parent="1" source="bpvDZhiT_yB0_DmH0w2s-10" target="bpvDZhiT_yB0_DmH0w2s-17" edge="1">
          <mxGeometry relative="1" as="geometry" />
        </mxCell>
        <mxCell id="bpvDZhiT_yB0_DmH0w2s-9" style="edgeStyle=orthogonalEdgeStyle;rounded=0;orthogonalLoop=1;jettySize=auto;html=1;exitX=0.5;exitY=1;exitDx=0;exitDy=0;entryX=0.5;entryY=0;entryDx=0;entryDy=0;" parent="1" source="bpvDZhiT_yB0_DmH0w2s-10" target="bpvDZhiT_yB0_DmH0w2s-16" edge="1">
          <mxGeometry relative="1" as="geometry" />
        </mxCell>
        <mxCell id="bpvDZhiT_yB0_DmH0w2s-10" value="MOP&lt;span style=&quot;background-color: initial;&quot;&gt;-BFF&lt;/span&gt;" style="rounded=1;whiteSpace=wrap;html=1;fillColor=#60a917;strokeColor=#2D7600;fontColor=#ffffff;" parent="1" vertex="1">
          <mxGeometry x="1147" y="1720" width="120" height="60" as="geometry" />
        </mxCell>
        <mxCell id="bpvDZhiT_yB0_DmH0w2s-12" style="edgeStyle=orthogonalEdgeStyle;rounded=0;orthogonalLoop=1;jettySize=auto;html=1;exitX=0.5;exitY=1;exitDx=0;exitDy=0;entryX=0.5;entryY=0;entryDx=0;entryDy=0;" parent="1" source="bpvDZhiT_yB0_DmH0w2s-13" target="bpvDZhiT_yB0_DmH0w2s-10" edge="1">
          <mxGeometry relative="1" as="geometry" />
        </mxCell>
        <mxCell id="bpvDZhiT_yB0_DmH0w2s-13" value="KONG" style="rounded=1;whiteSpace=wrap;html=1;fillColor=#dae8fc;strokeColor=#6c8ebf;" parent="1" vertex="1">
          <mxGeometry x="1147" y="1615" width="120" height="60" as="geometry" />
        </mxCell>
        <mxCell id="bpvDZhiT_yB0_DmH0w2s-14" value="" style="edgeStyle=orthogonalEdgeStyle;rounded=0;orthogonalLoop=1;jettySize=auto;html=1;" parent="1" source="bpvDZhiT_yB0_DmH0w2s-15" target="bpvDZhiT_yB0_DmH0w2s-13" edge="1">
          <mxGeometry relative="1" as="geometry" />
        </mxCell>
        <mxCell id="bpvDZhiT_yB0_DmH0w2s-15" value="APP" style="rounded=1;whiteSpace=wrap;html=1;fillColor=#f5f5f5;strokeColor=#666666;fontColor=#333333;" parent="1" vertex="1">
          <mxGeometry x="1147" y="1515" width="120" height="60" as="geometry" />
        </mxCell>
        <mxCell id="bpvDZhiT_yB0_DmH0w2s-16" value="获取客制化商品详情" style="rounded=1;whiteSpace=wrap;html=1;fillColor=#60a917;strokeColor=#2D7600;fontColor=#ffffff;" parent="1" vertex="1">
          <mxGeometry x="900" y="1920" width="120" height="60" as="geometry" />
        </mxCell>
        <mxCell id="bpvDZhiT_yB0_DmH0w2s-17" value="获取客制化内容" style="rounded=1;whiteSpace=wrap;html=1;fillColor=#60a917;strokeColor=#2D7600;fontColor=#ffffff;" parent="1" vertex="1">
          <mxGeometry x="1380" y="1920" width="120" height="60" as="geometry" />
        </mxCell>
        <mxCell id="bpvDZhiT_yB0_DmH0w2s-24" value="&lt;font style=&quot;font-size: 36px;&quot;&gt;系统视角&lt;/font&gt;" style="text;html=1;align=center;verticalAlign=middle;resizable=0;points=[];autosize=1;strokeColor=none;fillColor=none;" parent="1" vertex="1">
          <mxGeometry x="-692" y="1500" width="170" height="60" as="geometry" />
        </mxCell>
        <mxCell id="bpvDZhiT_yB0_DmH0w2s-26" style="edgeStyle=orthogonalEdgeStyle;rounded=0;orthogonalLoop=1;jettySize=auto;html=1;exitX=0.5;exitY=1;exitDx=0;exitDy=0;entryX=0.5;entryY=0;entryDx=0;entryDy=0;" parent="1" source="bpvDZhiT_yB0_DmH0w2s-33" target="bpvDZhiT_yB0_DmH0w2s-46" edge="1">
          <mxGeometry relative="1" as="geometry" />
        </mxCell>
        <mxCell id="bpvDZhiT_yB0_DmH0w2s-29" style="edgeStyle=orthogonalEdgeStyle;rounded=0;orthogonalLoop=1;jettySize=auto;html=1;exitX=0.5;exitY=1;exitDx=0;exitDy=0;entryX=0.5;entryY=0;entryDx=0;entryDy=0;" parent="1" source="bpvDZhiT_yB0_DmH0w2s-33" target="bpvDZhiT_yB0_DmH0w2s-42" edge="1">
          <mxGeometry relative="1" as="geometry" />
        </mxCell>
        <mxCell id="bpvDZhiT_yB0_DmH0w2s-30" style="edgeStyle=orthogonalEdgeStyle;rounded=0;orthogonalLoop=1;jettySize=auto;html=1;exitX=0.5;exitY=1;exitDx=0;exitDy=0;entryX=0.5;entryY=0;entryDx=0;entryDy=0;" parent="1" source="bpvDZhiT_yB0_DmH0w2s-33" target="bpvDZhiT_yB0_DmH0w2s-48" edge="1">
          <mxGeometry relative="1" as="geometry" />
        </mxCell>
        <mxCell id="bpvDZhiT_yB0_DmH0w2s-33" value="MOP&lt;span style=&quot;background-color: initial;&quot;&gt;-BFF&lt;/span&gt;" style="rounded=1;whiteSpace=wrap;html=1;fillColor=#60a917;strokeColor=#2D7600;fontColor=#ffffff;" parent="1" vertex="1">
          <mxGeometry x="-1" y="1730" width="120" height="60" as="geometry" />
        </mxCell>
        <mxCell id="bpvDZhiT_yB0_DmH0w2s-35" style="edgeStyle=orthogonalEdgeStyle;rounded=0;orthogonalLoop=1;jettySize=auto;html=1;exitX=0.5;exitY=1;exitDx=0;exitDy=0;entryX=0.5;entryY=0;entryDx=0;entryDy=0;" parent="1" source="bpvDZhiT_yB0_DmH0w2s-36" target="bpvDZhiT_yB0_DmH0w2s-33" edge="1">
          <mxGeometry relative="1" as="geometry" />
        </mxCell>
        <mxCell id="bpvDZhiT_yB0_DmH0w2s-36" value="KONG" style="rounded=1;whiteSpace=wrap;html=1;fillColor=#dae8fc;strokeColor=#6c8ebf;" parent="1" vertex="1">
          <mxGeometry y="1615" width="120" height="60" as="geometry" />
        </mxCell>
        <mxCell id="bpvDZhiT_yB0_DmH0w2s-37" value="" style="edgeStyle=orthogonalEdgeStyle;rounded=0;orthogonalLoop=1;jettySize=auto;html=1;" parent="1" source="bpvDZhiT_yB0_DmH0w2s-38" target="bpvDZhiT_yB0_DmH0w2s-36" edge="1">
          <mxGeometry relative="1" as="geometry" />
        </mxCell>
        <mxCell id="bpvDZhiT_yB0_DmH0w2s-38" value="APP" style="rounded=1;whiteSpace=wrap;html=1;fillColor=#f5f5f5;strokeColor=#666666;fontColor=#333333;" parent="1" vertex="1">
          <mxGeometry y="1515" width="120" height="60" as="geometry" />
        </mxCell>
        <mxCell id="bpvDZhiT_yB0_DmH0w2s-39" value="峰值10K/min" style="text;strokeColor=none;fillColor=none;align=left;verticalAlign=middle;spacingLeft=4;spacingRight=4;overflow=hidden;points=[[0,0.5],[1,0.5]];portConstraint=eastwest;rotatable=0;whiteSpace=wrap;html=1;" parent="1" vertex="1">
          <mxGeometry x="-110.5" y="1585" width="80" height="30" as="geometry" />
        </mxCell>
        <mxCell id="bpvDZhiT_yB0_DmH0w2s-42" value="CC" style="rounded=1;whiteSpace=wrap;html=1;fillColor=#6a00ff;strokeColor=#3700CC;fontColor=#ffffff;" parent="1" vertex="1">
          <mxGeometry x="-207" y="1930" width="120" height="60" as="geometry" />
        </mxCell>
        <mxCell id="bpvDZhiT_yB0_DmH0w2s-46" value="Provision" style="rounded=1;whiteSpace=wrap;html=1;fillColor=#ffe6cc;strokeColor=#d79b00;" parent="1" vertex="1">
          <mxGeometry x="-1" y="1930" width="120" height="60" as="geometry" />
        </mxCell>
        <mxCell id="bpvDZhiT_yB0_DmH0w2s-48" value="PC" style="rounded=1;whiteSpace=wrap;html=1;fillColor=#e51400;strokeColor=#B20000;fontColor=#ffffff;" parent="1" vertex="1">
          <mxGeometry x="222.5" y="1930" width="120" height="60" as="geometry" />
        </mxCell>
        <mxCell id="bpvDZhiT_yB0_DmH0w2s-51" value="&lt;font style=&quot;font-size: 18px;&quot;&gt;1:2&lt;/font&gt;" style="text;html=1;align=center;verticalAlign=middle;resizable=0;points=[];autosize=1;strokeColor=none;fillColor=none;" parent="1" vertex="1">
          <mxGeometry x="-147" y="1862" width="50" height="40" as="geometry" />
        </mxCell>
        <mxCell id="bpvDZhiT_yB0_DmH0w2s-55" value="&lt;font style=&quot;font-size: 18px;&quot;&gt;1:3&lt;/font&gt;" style="text;html=1;align=center;verticalAlign=middle;resizable=0;points=[];autosize=1;strokeColor=none;fillColor=none;" parent="1" vertex="1">
          <mxGeometry x="62" y="1862" width="50" height="40" as="geometry" />
        </mxCell>
        <mxCell id="bpvDZhiT_yB0_DmH0w2s-56" value="&lt;font style=&quot;font-size: 18px;&quot;&gt;1:1&lt;/font&gt;" style="text;html=1;align=center;verticalAlign=middle;resizable=0;points=[];autosize=1;strokeColor=none;fillColor=none;" parent="1" vertex="1">
          <mxGeometry x="287" y="1861" width="50" height="40" as="geometry" />
        </mxCell>
        <mxCell id="bpvDZhiT_yB0_DmH0w2s-60" value="&lt;font style=&quot;font-size: 18px;&quot;&gt;1:1&lt;/font&gt;" style="text;html=1;align=center;verticalAlign=middle;resizable=0;points=[];autosize=1;strokeColor=none;fillColor=none;" parent="1" vertex="1">
          <mxGeometry x="62" y="1678" width="50" height="40" as="geometry" />
        </mxCell>
        <mxCell id="bpvDZhiT_yB0_DmH0w2s-62" value="峰值8K/min" style="text;strokeColor=none;fillColor=none;align=left;verticalAlign=middle;spacingLeft=4;spacingRight=4;overflow=hidden;points=[[0,0.5],[1,0.5]];portConstraint=eastwest;rotatable=0;whiteSpace=wrap;html=1;" parent="1" vertex="1">
          <mxGeometry x="980" y="1540" width="80" height="30" as="geometry" />
        </mxCell>
        <mxCell id="04mrBLzKW4orGT25ao4q-16" value="" style="edgeStyle=orthogonalEdgeStyle;rounded=0;orthogonalLoop=1;jettySize=auto;html=1;fontFamily=Helvetica;fontSize=12;fontColor=#ffffff;entryX=0;entryY=0.5;entryDx=0;entryDy=0;exitX=1;exitY=0.5;exitDx=0;exitDy=0;" parent="1" source="KYUmYlhPFAAaQfYWgjA2-1" target="UIydrZSMB_puc10azmAg-3" edge="1">
          <mxGeometry relative="1" as="geometry">
            <mxPoint x="-430" y="2400" as="sourcePoint" />
          </mxGeometry>
        </mxCell>
        <mxCell id="KYUmYlhPFAAaQfYWgjA2-5" value="&lt;font style=&quot;font-size: 20px;&quot; color=&quot;#000000&quot;&gt;1:1&lt;/font&gt;" style="edgeLabel;html=1;align=center;verticalAlign=middle;resizable=0;points=[];rounded=1;strokeColor=#2D7600;fontFamily=Helvetica;fontSize=12;fontColor=#ffffff;fillColor=#60a917;" parent="04mrBLzKW4orGT25ao4q-16" vertex="1" connectable="0">
          <mxGeometry x="0.691" y="2" relative="1" as="geometry">
            <mxPoint x="-2" y="-14" as="offset" />
          </mxGeometry>
        </mxCell>
        <mxCell id="04mrBLzKW4orGT25ao4q-17" value="" style="edgeStyle=orthogonalEdgeStyle;rounded=0;orthogonalLoop=1;jettySize=auto;html=1;fontFamily=Helvetica;fontSize=12;fontColor=#ffffff;entryX=0;entryY=0.5;entryDx=0;entryDy=0;exitX=1;exitY=0.5;exitDx=0;exitDy=0;" parent="1" source="KYUmYlhPFAAaQfYWgjA2-1" target="UIydrZSMB_puc10azmAg-1" edge="1">
          <mxGeometry relative="1" as="geometry">
            <mxPoint x="-430" y="2400" as="sourcePoint" />
          </mxGeometry>
        </mxCell>
        <mxCell id="KYUmYlhPFAAaQfYWgjA2-3" value="1:1" style="edgeLabel;html=1;align=center;verticalAlign=middle;resizable=0;points=[];rounded=1;strokeColor=#2D7600;fontFamily=Helvetica;fontSize=20;fontColor=#000000;fillColor=#60a917;" parent="04mrBLzKW4orGT25ao4q-17" vertex="1" connectable="0">
          <mxGeometry x="0.6756" y="5" relative="1" as="geometry">
            <mxPoint y="-9" as="offset" />
          </mxGeometry>
        </mxCell>
        <mxCell id="04mrBLzKW4orGT25ao4q-18" value="" style="edgeStyle=orthogonalEdgeStyle;rounded=0;orthogonalLoop=1;jettySize=auto;html=1;fontFamily=Helvetica;fontSize=12;fontColor=#ffffff;exitX=1;exitY=0.5;exitDx=0;exitDy=0;entryX=0;entryY=0.5;entryDx=0;entryDy=0;" parent="1" source="KYUmYlhPFAAaQfYWgjA2-1" target="UIydrZSMB_puc10azmAg-2" edge="1">
          <mxGeometry relative="1" as="geometry">
            <mxPoint x="-430" y="2400" as="sourcePoint" />
          </mxGeometry>
        </mxCell>
        <mxCell id="KYUmYlhPFAAaQfYWgjA2-4" value="&lt;font style=&quot;font-size: 20px;&quot; color=&quot;#000000&quot;&gt;1:3&lt;/font&gt;" style="edgeLabel;html=1;align=center;verticalAlign=middle;resizable=0;points=[];rounded=1;strokeColor=#2D7600;fontFamily=Helvetica;fontSize=12;fontColor=#ffffff;fillColor=#60a917;" parent="04mrBLzKW4orGT25ao4q-18" vertex="1" connectable="0">
          <mxGeometry x="0.3094" y="7" relative="1" as="geometry">
            <mxPoint y="-7" as="offset" />
          </mxGeometry>
        </mxCell>
        <mxCell id="bpvDZhiT_yB0_DmH0w2s-70" value="&lt;span style=&quot;color: rgb(0, 0, 0); font-family: Helvetica; font-size: 36px; font-style: normal; font-variant-ligatures: normal; font-variant-caps: normal; font-weight: 400; letter-spacing: normal; orphans: 2; text-align: center; text-indent: 0px; text-transform: none; widows: 2; word-spacing: 0px; -webkit-text-stroke-width: 0px; white-space: nowrap; background-color: rgb(251, 251, 251); text-decoration-thickness: initial; text-decoration-style: initial; text-decoration-color: initial; display: inline !important; float: none;&quot;&gt;接口视角&lt;/span&gt;" style="text;whiteSpace=wrap;html=1;" parent="1" vertex="1">
          <mxGeometry x="-767.5" y="2160" width="180" height="70" as="geometry" />
        </mxCell>
        <mxCell id="04mrBLzKW4orGT25ao4q-4" value="" style="edgeStyle=entityRelationEdgeStyle;startArrow=none;endArrow=none;segment=10;curved=1;sourcePerimeterSpacing=0;targetPerimeterSpacing=0;rounded=0;fontFamily=Helvetica;fontSize=12;fontColor=default;exitX=0;exitY=0.5;exitDx=0;exitDy=0;entryX=1;entryY=0.5;entryDx=0;entryDy=0;" parent="1" source="04mrBLzKW4orGT25ao4q-13" target="UIydrZSMB_puc10azmAg-2" edge="1">
          <mxGeometry relative="1" as="geometry">
            <mxPoint x="-80" y="2460" as="sourcePoint" />
          </mxGeometry>
        </mxCell>
        <mxCell id="04mrBLzKW4orGT25ao4q-23" value="" style="edgeStyle=entityRelationEdgeStyle;rounded=0;orthogonalLoop=1;jettySize=auto;html=1;startArrow=none;endArrow=none;segment=10;curved=1;sourcePerimeterSpacing=0;targetPerimeterSpacing=0;fontFamily=Helvetica;fontSize=12;fontColor=#ffffff;exitX=1;exitY=0.5;exitDx=0;exitDy=0;entryX=0;entryY=0.5;entryDx=0;entryDy=0;" parent="1" source="UIydrZSMB_puc10azmAg-3" target="UIydrZSMB_puc10azmAg-4" edge="1">
          <mxGeometry relative="1" as="geometry">
            <mxPoint x="-100" y="2535" as="targetPoint" />
            <Array as="points">
              <mxPoint x="-120" y="2535" />
              <mxPoint x="-80" y="2535" />
              <mxPoint x="-80" y="2535" />
            </Array>
          </mxGeometry>
        </mxCell>
        <mxCell id="04mrBLzKW4orGT25ao4q-8" value="" style="edgeStyle=entityRelationEdgeStyle;startArrow=none;endArrow=none;segment=10;curved=1;sourcePerimeterSpacing=0;targetPerimeterSpacing=0;rounded=0;fontFamily=Helvetica;fontSize=12;fontColor=#ffffff;entryX=1;entryY=0.5;entryDx=0;entryDy=0;exitX=0;exitY=0.5;exitDx=0;exitDy=0;" parent="1" source="04mrBLzKW4orGT25ao4q-15" target="UIydrZSMB_puc10azmAg-2" edge="1">
          <mxGeometry relative="1" as="geometry">
            <mxPoint x="-74" y="2610" as="sourcePoint" />
            <mxPoint x="-160" y="2450" as="targetPoint" />
          </mxGeometry>
        </mxCell>
        <mxCell id="04mrBLzKW4orGT25ao4q-9" value="&lt;span style=&quot;color: rgb(23, 43, 77); font-family: -apple-system, &amp;quot;system-ui&amp;quot;, &amp;quot;Segoe UI&amp;quot;, Roboto, Oxygen, Ubuntu, &amp;quot;Fira Sans&amp;quot;, &amp;quot;Droid Sans&amp;quot;, &amp;quot;Helvetica Neue&amp;quot;, sans-serif; text-align: left; background-color: rgb(255, 255, 255);&quot;&gt;/preference/products/productIds&lt;/span&gt;" style="text;html=1;align=center;verticalAlign=middle;whiteSpace=wrap;rounded=0;fontFamily=Helvetica;fontSize=14;fontColor=#ffffff;labelBorderColor=none;fontStyle=0;autosize=1;" parent="1" vertex="1">
          <mxGeometry x="-120" y="2255" width="230" height="30" as="geometry" />
        </mxCell>
        <mxCell id="04mrBLzKW4orGT25ao4q-11" value="&lt;span style=&quot;color: rgb(23, 43, 77); font-family: -apple-system, system-ui, &amp;quot;Segoe UI&amp;quot;, Roboto, Oxygen, Ubuntu, &amp;quot;Fira Sans&amp;quot;, &amp;quot;Droid Sans&amp;quot;, &amp;quot;Helvetica Neue&amp;quot;, sans-serif; text-align: left; background-color: rgb(255, 255, 255);&quot;&gt;/mod/v2/menu/logout/product/detail&lt;/span&gt;" style="text;html=1;align=center;verticalAlign=middle;whiteSpace=wrap;rounded=0;fontFamily=Helvetica;fontSize=14;fontColor=#ffffff;labelBorderColor=none;fontStyle=0;autosize=1;" parent="1" vertex="1">
          <mxGeometry x="-120" y="2385" width="260" height="30" as="geometry" />
        </mxCell>
        <mxCell id="04mrBLzKW4orGT25ao4q-13" value="&lt;div style=&quot;text-align: left;&quot;&gt;&lt;span style=&quot;color: rgb(23, 43, 77); font-family: -apple-system, system-ui, &amp;quot;Segoe UI&amp;quot;, Roboto, Oxygen, Ubuntu, &amp;quot;Fira Sans&amp;quot;, &amp;quot;Droid Sans&amp;quot;, &amp;quot;Helvetica Neue&amp;quot;, sans-serif; background-color: initial;&quot;&gt;/mop/v2/product/detail&amp;nbsp;&lt;/span&gt;&lt;/div&gt;" style="text;html=1;align=center;verticalAlign=middle;whiteSpace=wrap;rounded=0;fontFamily=Helvetica;fontSize=14;fontColor=#ffffff;labelBorderColor=none;fontStyle=0;autosize=1;" parent="1" vertex="1">
          <mxGeometry x="-120" y="2348" width="170" height="30" as="geometry" />
        </mxCell>
        <mxCell id="04mrBLzKW4orGT25ao4q-15" value="&lt;span style=&quot;color: rgb(23, 43, 77); font-family: -apple-system, &amp;quot;system-ui&amp;quot;, &amp;quot;Segoe UI&amp;quot;, Roboto, Oxygen, Ubuntu, &amp;quot;Fira Sans&amp;quot;, &amp;quot;Droid Sans&amp;quot;, &amp;quot;Helvetica Neue&amp;quot;, sans-serif; text-align: left; background-color: rgb(255, 255, 255);&quot;&gt;/api/rule/v1/product/rules&lt;/span&gt;" style="text;html=1;align=center;verticalAlign=middle;whiteSpace=wrap;rounded=0;fontFamily=Helvetica;fontSize=14;fontColor=#ffffff;labelBorderColor=none;fontStyle=0;autosize=1;" parent="1" vertex="1">
          <mxGeometry x="-120" y="2420" width="190" height="30" as="geometry" />
        </mxCell>
        <mxCell id="04mrBLzKW4orGT25ao4q-20" value="" style="edgeStyle=entityRelationEdgeStyle;rounded=0;orthogonalLoop=1;jettySize=auto;html=1;startArrow=none;endArrow=none;segment=10;curved=1;sourcePerimeterSpacing=0;targetPerimeterSpacing=0;fontFamily=Helvetica;fontSize=12;fontColor=#ffffff;entryX=0;entryY=0.5;entryDx=0;entryDy=0;" parent="1" target="04mrBLzKW4orGT25ao4q-9" edge="1">
          <mxGeometry relative="1" as="geometry">
            <mxPoint x="-182" y="2270" as="sourcePoint" />
            <mxPoint x="-120" y="2270" as="targetPoint" />
          </mxGeometry>
        </mxCell>
        <mxCell id="04mrBLzKW4orGT25ao4q-21" value="" style="endArrow=none;html=1;rounded=0;fontFamily=Helvetica;fontSize=12;fontColor=#ffffff;exitX=1;exitY=0.5;exitDx=0;exitDy=0;entryX=0;entryY=0.5;entryDx=0;entryDy=0;" parent="1" source="UIydrZSMB_puc10azmAg-2" target="04mrBLzKW4orGT25ao4q-11" edge="1">
          <mxGeometry width="50" height="50" relative="1" as="geometry">
            <mxPoint x="-70" y="2490" as="sourcePoint" />
            <mxPoint x="-20" y="2440" as="targetPoint" />
          </mxGeometry>
        </mxCell>
        <mxCell id="KYUmYlhPFAAaQfYWgjA2-1" value="获取客制化商品详情&lt;br&gt;&lt;span style=&quot;letter-spacing: 0pt; background-color: initial; font-size: 11pt; font-family: 等线; text-align: start;&quot;&gt;&lt;font color=&quot;#000000&quot;&gt;/mop/v4/customization/product&lt;/font&gt;&lt;/span&gt;" style="whiteSpace=wrap;html=1;rounded=1;arcSize=50;align=center;verticalAlign=middle;strokeWidth=1;autosize=0;spacing=4;treeFolding=1;treeMoving=1;newEdgeStyle={&quot;edgeStyle&quot;:&quot;entityRelationEdgeStyle&quot;,&quot;startArrow&quot;:&quot;none&quot;,&quot;endArrow&quot;:&quot;none&quot;,&quot;segment&quot;:10,&quot;curved&quot;:1,&quot;sourcePerimeterSpacing&quot;:0,&quot;targetPerimeterSpacing&quot;:0};strokeColor=#2D7600;fontFamily=Helvetica;fontSize=12;fontColor=#ffffff;fillColor=#60a917;" parent="1" vertex="1">
          <mxGeometry x="-550" y="2370" width="120" height="60" as="geometry" />
        </mxCell>
        <mxCell id="KYUmYlhPFAAaQfYWgjA2-6" value="获取客制化内容&lt;br&gt;&lt;div style=&quot;color: rgb(0, 0, 0); font-size: medium; text-align: start;&quot; data-hash=&quot;16d39a5b071669c2bc043460d72533dd&quot; data-version=&quot;3.0.0&quot;&gt;&lt;/div&gt;&lt;div style=&quot;color: rgb(0, 0, 0); font-size: medium; text-align: start;&quot; class=&quot;document&quot;&gt;&lt;div class=&quot;section&quot;&gt;&lt;p style=&quot;margin: 3pt 0pt; font-family: 等线; font-size: 12pt; line-height: 20.8px;&quot; class=&quot;paragraph text-align-type-left&quot;&gt;&lt;span style=&quot;font-size: 11pt; letter-spacing: 0pt; vertical-align: baseline;&quot; data-font-family=&quot;default&quot;&gt;/mop/v1/preference/product/get&lt;/span&gt;&lt;/p&gt;&lt;/div&gt;&lt;/div&gt;" style="whiteSpace=wrap;html=1;rounded=1;arcSize=50;align=center;verticalAlign=middle;strokeWidth=1;autosize=0;spacing=4;treeFolding=1;treeMoving=1;newEdgeStyle={&quot;edgeStyle&quot;:&quot;entityRelationEdgeStyle&quot;,&quot;startArrow&quot;:&quot;none&quot;,&quot;endArrow&quot;:&quot;none&quot;,&quot;segment&quot;:10,&quot;curved&quot;:1,&quot;sourcePerimeterSpacing&quot;:0,&quot;targetPerimeterSpacing&quot;:0};strokeColor=#2D7600;fontFamily=Helvetica;fontSize=12;fontColor=#ffffff;fillColor=#60a917;" parent="1" vertex="1">
          <mxGeometry x="400" y="2370" width="120" height="60" as="geometry" />
        </mxCell>
        <mxCell id="KYUmYlhPFAAaQfYWgjA2-13" value="" style="edgeStyle=entityRelationEdgeStyle;rounded=0;orthogonalLoop=1;jettySize=auto;html=1;startArrow=none;endArrow=none;segment=10;curved=1;sourcePerimeterSpacing=0;targetPerimeterSpacing=0;fontFamily=Helvetica;fontSize=12;fontColor=#ffffff;" parent="1" source="KYUmYlhPFAAaQfYWgjA2-9" target="KYUmYlhPFAAaQfYWgjA2-12" edge="1">
          <mxGeometry relative="1" as="geometry" />
        </mxCell>
        <mxCell id="KYUmYlhPFAAaQfYWgjA2-9" value="CC" style="whiteSpace=wrap;html=1;rounded=1;arcSize=50;align=center;verticalAlign=middle;strokeWidth=1;autosize=0;spacing=4;treeFolding=1;treeMoving=1;newEdgeStyle={&quot;edgeStyle&quot;:&quot;entityRelationEdgeStyle&quot;,&quot;startArrow&quot;:&quot;none&quot;,&quot;endArrow&quot;:&quot;none&quot;,&quot;segment&quot;:10,&quot;curved&quot;:1,&quot;sourcePerimeterSpacing&quot;:0,&quot;targetPerimeterSpacing&quot;:0};strokeColor=#3700CC;fontFamily=Helvetica;fontSize=12;fontColor=#ffffff;fillColor=#6a00ff;" parent="1" vertex="1">
          <mxGeometry x="620" y="2370" width="120" height="60" as="geometry" />
        </mxCell>
        <mxCell id="KYUmYlhPFAAaQfYWgjA2-12" value="&lt;font color=&quot;#000000&quot;&gt;/preference/products/${customer_id}&lt;/font&gt;" style="text;html=1;align=center;verticalAlign=middle;whiteSpace=wrap;rounded=0;fontFamily=Helvetica;fontSize=12;fontColor=#ffffff;autosize=1;" parent="1" vertex="1">
          <mxGeometry x="780" y="2385" width="220" height="30" as="geometry" />
        </mxCell>
        <mxCell id="KYUmYlhPFAAaQfYWgjA2-15" value="" style="edgeStyle=orthogonalEdgeStyle;rounded=0;orthogonalLoop=1;jettySize=auto;html=1;fontFamily=Helvetica;fontSize=12;fontColor=#ffffff;entryX=0;entryY=0.5;entryDx=0;entryDy=0;exitX=1;exitY=0.5;exitDx=0;exitDy=0;" parent="1" source="KYUmYlhPFAAaQfYWgjA2-6" target="KYUmYlhPFAAaQfYWgjA2-9" edge="1">
          <mxGeometry relative="1" as="geometry">
            <mxPoint x="286" y="2415" as="sourcePoint" />
            <mxPoint x="414" y="2535" as="targetPoint" />
          </mxGeometry>
        </mxCell>
        <mxCell id="KYUmYlhPFAAaQfYWgjA2-16" value="&lt;font style=&quot;font-size: 20px;&quot; color=&quot;#000000&quot;&gt;1:1&lt;/font&gt;" style="edgeLabel;html=1;align=center;verticalAlign=middle;resizable=0;points=[];rounded=1;strokeColor=#2D7600;fontFamily=Helvetica;fontSize=12;fontColor=#ffffff;fillColor=#60a917;" parent="KYUmYlhPFAAaQfYWgjA2-15" vertex="1" connectable="0">
          <mxGeometry x="0.691" y="2" relative="1" as="geometry">
            <mxPoint x="-2" y="-14" as="offset" />
          </mxGeometry>
        </mxCell>
        <mxCell id="UIydrZSMB_puc10azmAg-1" value="CC" style="rounded=1;whiteSpace=wrap;html=1;fillColor=#6a00ff;strokeColor=#3700CC;fontColor=#ffffff;" vertex="1" parent="1">
          <mxGeometry x="-302" y="2240" width="120" height="60" as="geometry" />
        </mxCell>
        <mxCell id="UIydrZSMB_puc10azmAg-2" value="PC" style="rounded=1;whiteSpace=wrap;html=1;fillColor=#e51400;strokeColor=#B20000;fontColor=#ffffff;" vertex="1" parent="1">
          <mxGeometry x="-300" y="2370" width="120" height="60" as="geometry" />
        </mxCell>
        <mxCell id="UIydrZSMB_puc10azmAg-3" value="Provision" style="rounded=1;whiteSpace=wrap;html=1;fillColor=#ffe6cc;strokeColor=#d79b00;" vertex="1" parent="1">
          <mxGeometry x="-302" y="2505" width="120" height="60" as="geometry" />
        </mxCell>
        <mxCell id="UIydrZSMB_puc10azmAg-9" style="edgeStyle=orthogonalEdgeStyle;rounded=0;orthogonalLoop=1;jettySize=auto;html=1;exitX=1;exitY=0.5;exitDx=0;exitDy=0;entryX=0;entryY=0.5;entryDx=0;entryDy=0;" edge="1" parent="1" source="UIydrZSMB_puc10azmAg-4" target="UIydrZSMB_puc10azmAg-7">
          <mxGeometry relative="1" as="geometry" />
        </mxCell>
        <mxCell id="UIydrZSMB_puc10azmAg-10" style="edgeStyle=orthogonalEdgeStyle;rounded=0;orthogonalLoop=1;jettySize=auto;html=1;exitX=1;exitY=0.5;exitDx=0;exitDy=0;entryX=0;entryY=0.5;entryDx=0;entryDy=0;" edge="1" parent="1" source="UIydrZSMB_puc10azmAg-4" target="UIydrZSMB_puc10azmAg-8">
          <mxGeometry relative="1" as="geometry" />
        </mxCell>
        <mxCell id="UIydrZSMB_puc10azmAg-4" value="&lt;span style=&quot;color: rgb(23, 43, 77); font-family: -apple-system, system-ui, &amp;quot;Segoe UI&amp;quot;, Roboto, Oxygen, Ubuntu, &amp;quot;Fira Sans&amp;quot;, &amp;quot;Droid Sans&amp;quot;, &amp;quot;Helvetica Neue&amp;quot;, sans-serif; font-size: 14px; text-align: left; background-color: rgb(255, 255, 255);&quot;&gt;/app-provision-api/default/custom-configs&lt;/span&gt;" style="whiteSpace=wrap;html=1;" vertex="1" parent="1">
          <mxGeometry x="-120" y="2515" width="300" height="40" as="geometry" />
        </mxCell>
        <mxCell id="UIydrZSMB_puc10azmAg-7" value="&lt;span style=&quot;color: rgb(23, 43, 77); font-family: -apple-system, BlinkMacSystemFont, &amp;quot;Segoe UI&amp;quot;, Roboto, Oxygen, Ubuntu, &amp;quot;Fira Sans&amp;quot;, &amp;quot;Droid Sans&amp;quot;, &amp;quot;Helvetica Neue&amp;quot;, sans-serif; font-size: 14px; font-weight: 700; text-align: left; background-color: rgb(255, 255, 255);&quot;&gt;Caffeine&lt;/span&gt;" style="whiteSpace=wrap;html=1;" vertex="1" parent="1">
          <mxGeometry x="268.25" y="2490" width="87.5" height="25" as="geometry" />
        </mxCell>
        <mxCell id="UIydrZSMB_puc10azmAg-8" value="&lt;span style=&quot;color: rgb(23, 43, 77); font-family: -apple-system, BlinkMacSystemFont, &amp;quot;Segoe UI&amp;quot;, Roboto, Oxygen, Ubuntu, &amp;quot;Fira Sans&amp;quot;, &amp;quot;Droid Sans&amp;quot;, &amp;quot;Helvetica Neue&amp;quot;, sans-serif; font-size: 14px; font-weight: 700; text-align: left; background-color: rgb(255, 255, 255);&quot;&gt;Couchbase&lt;/span&gt;" style="whiteSpace=wrap;html=1;" vertex="1" parent="1">
          <mxGeometry x="268.25" y="2535" width="90" height="30" as="geometry" />
        </mxCell>
        <mxCell id="UIydrZSMB_puc10azmAg-11" value="1:2" style="text;html=1;align=center;verticalAlign=middle;resizable=0;points=[];autosize=1;strokeColor=none;fillColor=none;" vertex="1" parent="1">
          <mxGeometry x="220" y="2478" width="40" height="30" as="geometry" />
        </mxCell>
        <mxCell id="UIydrZSMB_puc10azmAg-12" value="1:2" style="text;html=1;align=center;verticalAlign=middle;resizable=0;points=[];autosize=1;strokeColor=none;fillColor=none;" vertex="1" parent="1">
          <mxGeometry x="220" y="2525" width="40" height="30" as="geometry" />
        </mxCell>
      </root>
    </mxGraphModel>
  </diagram>
</mxfile>
